<svg width="360" height="637" viewBox="0 0 360 637" fill="none" xmlns="http://www.w3.org/2000/svg">
<mask id="mask0_211_243" style="mask-type:alpha" maskUnits="userSpaceOnUse" x="0" y="0" width="360" height="637">
<path d="M360 619.716V0H0.0964655V446.217C-0.70332 500.435 3.04468 531.657 27.5382 543.042C112.182 575.212 297.217 622.427 324.01 633.27C350.802 644.114 359.167 628.752 360 619.716Z" fill="#D9D9D9"/>
</mask>
<g mask="url(#mask0_211_243)">
<g filter="url(#filter0_f_211_243)">
<path d="M25.639 377.014C-39.6723 371.165 -45.7239 461.901 -40.5858 508H405.86C418.04 387.168 435.091 134.416 405.86 90.0634C369.323 34.6228 441.256 189.369 283.116 169.873C124.976 150.378 107.278 384.325 25.639 377.014Z" fill="#DDD1CC"/>
</g>
</g>
<defs>
<filter id="filter0_f_211_243" x="-142" y="-22" width="664" height="630" filterUnits="userSpaceOnUse" color-interpolation-filters="sRGB">
<feFlood flood-opacity="0" result="BackgroundImageFix"/>
<feBlend mode="normal" in="SourceGraphic" in2="BackgroundImageFix" result="shape"/>
<feGaussianBlur stdDeviation="50" result="effect1_foregroundBlur_211_243"/>
</filter>
</defs>
</svg>
