<svg width="8" height="8" viewBox="0 0 8 8" fill="none" xmlns="http://www.w3.org/2000/svg">
<path d="M0.114957 7.88505C-0.0383038 7.73179 -0.0383038 7.48331 0.114957 7.33005L7.33005 0.114954C7.48331 -0.0383069 7.73179 -0.0383067 7.88505 0.114954C8.03831 0.268215 8.03831 0.5167 7.88505 0.669961L0.669964 7.88505C0.516703 8.03832 0.268218 8.03831 0.114957 7.88505Z" fill="#6A6A6A"/>
<path d="M0.114946 0.114946C0.268207 -0.0383152 0.516692 -0.0383152 0.669953 0.114946L7.88504 7.33004C8.0383 7.4833 8.0383 7.73178 7.88504 7.88505C7.73178 8.03831 7.4833 8.03831 7.33004 7.88505L0.114946 0.669953C-0.0383153 0.516692 -0.0383152 0.268207 0.114946 0.114946Z" fill="#6A6A6A"/>
</svg>
