<svg width="360" height="599" viewBox="0 0 360 599" fill="none" xmlns="http://www.w3.org/2000/svg">
<path opacity="0.0214286" d="M-118.663 271.476C-107.201 250.046 -64.4639 214.354 14.788 243.029C113.853 278.874 48.4519 334.119 161.45 340.047C274.448 345.975 322.075 83.9807 502.581 125.794" stroke="#D5101C"/>
<path opacity="0.0428571" d="M-120.333 266.553C-108.989 245.349 -66.7109 210.023 11.6472 238.356C109.595 273.772 44.8967 328.45 156.636 334.266C268.375 340.082 315.587 80.8866 494.068 122.173" stroke="#D5101C"/>
<path opacity="0.0642857" d="M-122.002 261.631C-110.776 240.652 -68.9579 205.692 8.50628 233.682C105.337 268.67 41.3415 322.782 151.822 328.485C262.302 334.189 309.099 77.7927 485.554 118.551" stroke="#D5101C"/>
<path opacity="0.0857143" d="M-123.672 256.708C-112.564 235.955 -71.2049 201.36 5.36542 229.008C101.078 263.568 37.7864 317.113 147.007 322.705C256.228 328.296 302.611 74.6986 477.041 114.93" stroke="#D5101C"/>
<path opacity="0.107143" d="M-125.341 251.786C-114.351 231.258 -73.4519 197.029 2.22462 224.334C96.8203 258.466 34.2313 311.445 142.193 316.924C250.155 322.403 296.123 71.6046 468.527 111.308" stroke="#D5101C"/>
<path opacity="0.128571" d="M-127.01 246.863C-116.138 226.561 -75.6989 192.698 -0.916238 219.661C92.5621 253.364 30.6761 305.776 137.379 311.143C244.082 316.51 289.635 68.5106 460.014 107.687" stroke="#D5101C"/>
<path opacity="0.15" d="M-128.68 241.94C-117.926 221.864 -77.9459 188.367 -4.05706 214.987C88.304 248.262 27.121 300.108 132.565 305.362C238.008 310.617 283.147 65.4166 451.5 104.066" stroke="#D5101C"/>
<path opacity="0.171429" d="M-130.349 237.018C-119.713 217.167 -80.1929 184.036 -7.19792 210.313C84.0459 243.16 23.5658 294.439 127.75 299.582C231.935 304.724 276.659 62.3226 442.987 100.444" stroke="#D5101C"/>
<path opacity="0.192857" d="M-132.018 232.095C-121.501 212.47 -82.44 179.704 -10.3388 205.639C79.7877 238.058 20.0107 288.771 122.936 293.801C225.862 298.831 270.171 59.2286 434.473 96.8227" stroke="#D5101C"/>
<path opacity="0.214286" d="M-133.688 227.172C-123.288 207.773 -84.6869 175.373 -13.4796 200.965C75.5296 232.956 16.4556 283.102 118.122 288.02C219.788 292.938 263.683 56.1346 425.96 93.2013" stroke="#D5101C"/>
<path opacity="0.235714" d="M-135.357 222.25C-125.076 203.076 -86.934 171.042 -16.6205 196.292C71.2714 227.854 12.9004 277.434 113.308 282.239C213.715 287.045 257.195 53.0405 417.446 89.5799" stroke="#D5101C"/>
<path opacity="0.257143" d="M-137.027 217.327C-126.863 198.379 -89.1809 166.711 -19.7613 191.618C67.0133 222.752 9.34534 271.766 108.493 276.459C207.642 281.152 250.707 49.9465 408.933 85.9585" stroke="#D5101C"/>
<path opacity="0.278571" d="M-138.696 212.404C-128.65 193.682 -91.428 162.38 -22.9021 186.944C62.7552 217.65 5.79016 266.097 103.679 270.678C201.568 275.259 244.219 46.8525 400.419 82.337" stroke="#D5101C"/>
<path opacity="0.0157895" d="M-110.316 296.089C-98.2639 273.531 -53.2288 236.01 30.4922 266.398C135.144 304.384 66.2276 362.461 185.521 368.951C304.815 375.44 354.515 99.4507 545.149 143.901" stroke="#D5101C"/>
<path opacity="0.0315789" d="M-111.986 291.167C-100.051 268.834 -55.4759 231.679 27.3514 261.725C130.885 299.282 62.6724 356.793 180.707 363.17C298.742 369.547 348.027 96.3567 536.636 140.28" stroke="#D5101C"/>
<path opacity="0.0473684" d="M-113.655 286.244C-101.839 264.137 -57.7229 227.348 24.2105 257.051C126.627 294.18 59.1172 351.124 175.893 357.389C292.668 363.654 341.539 93.2627 528.122 136.658" stroke="#D5101C"/>
<path opacity="0.0631579" d="M-115.325 281.321C-103.626 259.44 -59.97 223.016 21.0696 252.377C122.369 289.078 55.562 345.456 171.078 351.608C286.595 357.761 335.051 90.1687 519.608 133.037" stroke="#D5101C"/>
<path opacity="0.0789474" d="M-116.994 276.399C-105.414 254.743 -62.217 218.685 17.9287 247.703C118.111 283.976 52.0068 339.787 166.264 345.828C280.522 351.868 328.563 87.0746 511.095 129.415" stroke="#D5101C"/>
<path opacity="0.0947368" d="M-118.663 271.476C-107.201 250.046 -64.464 214.354 14.7879 243.029C113.853 278.874 48.4517 334.119 161.45 340.047C274.448 345.975 322.075 83.9806 502.581 125.794" stroke="#D5101C"/>
<path opacity="0.110526" d="M-120.333 266.553C-108.989 245.349 -66.711 210.023 11.647 238.356C109.595 273.772 44.8966 328.45 156.636 334.266C268.375 340.082 315.587 80.8866 494.068 122.173" stroke="#D5101C"/>
<path opacity="0.126316" d="M-122.002 261.631C-110.776 240.652 -68.958 205.692 8.50616 233.682C105.336 268.67 41.3414 322.782 151.821 328.485C262.302 334.189 309.099 77.7926 485.554 118.551" stroke="#D5101C"/>
<path opacity="0.142105" d="M-123.672 256.708C-112.564 235.955 -71.205 201.36 5.36536 229.008C101.078 263.568 37.7863 317.113 147.007 322.705C256.228 328.296 302.611 74.6986 477.041 114.93" stroke="#D5101C"/>
<path opacity="0.157895" d="M-125.341 251.785C-114.351 231.258 -73.4522 197.029 2.22438 224.334C96.82 258.466 34.231 311.445 142.193 316.924C250.155 322.403 296.123 71.6045 468.527 111.308" stroke="#D5101C"/>
<path opacity="0.173684" d="M-127.01 246.863C-116.139 226.561 -75.6991 192.698 -0.916421 219.66C92.5619 253.364 30.6759 305.776 137.379 311.143C244.081 316.51 289.635 68.5105 460.014 107.687" stroke="#D5101C"/>
<path opacity="0.189474" d="M-128.68 241.94C-117.926 221.864 -77.9462 188.367 -4.0573 214.987C88.3038 248.262 27.1208 300.108 132.564 305.362C238.008 310.617 283.147 65.4165 451.5 104.065" stroke="#D5101C"/>
<path opacity="0.205263" d="M-130.349 237.017C-119.714 217.167 -80.1932 184.036 -7.19816 210.313C84.0456 243.16 23.5656 294.439 127.75 299.582C231.935 304.724 276.659 62.3225 442.987 100.444" stroke="#D5101C"/>
<path opacity="0.221053" d="M-132.019 232.095C-121.501 212.47 -82.4401 179.704 -10.339 205.639C79.7875 238.058 20.0105 288.771 122.936 293.801C225.861 298.831 270.171 59.2285 434.473 96.8226" stroke="#D5101C"/>
<path opacity="0.236842" d="M-133.688 227.172C-123.288 207.773 -84.6872 175.373 -13.4798 200.965C75.5294 232.956 16.4554 283.102 118.122 288.02C219.788 292.938 263.683 56.1345 425.959 93.2012" stroke="#D5101C"/>
<path opacity="0.252632" d="M-135.815 222.399C-125.534 203.226 -87.392 171.192 -17.0785 196.441C70.8134 228.003 12.4424 277.584 112.85 282.389C213.257 287.194 256.737 53.1902 416.988 89.7296" stroke="#D5101C"/>
<path opacity="0.268421" d="M-137.027 217.327C-126.863 198.379 -89.1812 166.711 -19.7615 191.618C67.0131 222.752 9.3451 271.765 108.493 276.459C207.641 281.152 250.707 49.9465 408.932 85.9584" stroke="#D5101C"/>
<path opacity="0.284211" d="M-138.696 212.404C-128.651 193.682 -91.4283 162.38 -22.9024 186.944C62.7549 217.649 5.78985 266.097 103.679 270.678C201.568 275.259 244.219 46.8524 400.419 82.337" stroke="#D5101C"/>
<path opacity="0.3" d="M-140.366 207.481C-130.438 188.985 -93.6752 158.048 -26.0432 182.27C58.4968 212.547 2.23483 260.428 98.8647 264.897C195.495 269.366 237.731 43.7584 391.905 78.7156" stroke="#D5101C"/>
</svg>
